<svg xmlns="http://www.w3.org/2000/svg" width="805" height="600"><rect width="805" height="600" x="0" y="0" fill="#FFFFFF" id="backgorund"/><g id="viz"><clipPath id="serieClipPath"><rect x="-50" y="-10" width="805" height="600"/></clipPath><g transform="translate(0,0)"><g transform="translate(50,10)" clip-path="url(#serieClipPath)"><g id="axis"><g transform="translate(0,570)" fill="none" font-size="10" font-family="sans-serif" text-anchor="middle"><path class="domain" stroke="currentColor" d="M0.5,6V0.5H740.5V6"/><g class="tick" opacity="1" transform="translate(0.5,0)"><line stroke="currentColor" y2="6"/><text fill="currentColor" y="9" dy="0.71em">Jan 03</text></g><g class="tick" opacity="1" transform="translate(57.42307692307693,0)"><line stroke="currentColor" y2="6"/><text fill="currentColor" y="9" dy="0.71em">Jan 10</text></g><g class="tick" opacity="1" transform="translate(114.34615384615385,0)"><line stroke="currentColor" y2="6"/><text fill="currentColor" y="9" dy="0.71em">Jan 17</text></g><g class="tick" opacity="1" transform="translate(171.26923076923077,0)"><line stroke="currentColor" y2="6"/><text fill="currentColor" y="9" dy="0.71em">Jan 24</text></g><g class="tick" opacity="1" transform="translate(228.1923076923077,0)"><line stroke="currentColor" y2="6"/><text fill="currentColor" y="9" dy="0.71em">Jan 31</text></g><g class="tick" opacity="1" transform="translate(285.11538461538464,0)"><line stroke="currentColor" y2="6"/><text fill="currentColor" y="9" dy="0.71em">Feb 07</text></g><g class="tick" opacity="1" transform="translate(342.03846153846155,0)"><line stroke="currentColor" y2="6"/><text fill="currentColor" y="9" dy="0.71em">Feb 14</text></g><g class="tick" opacity="1" transform="translate(398.96153846153845,0)"><line stroke="currentColor" y2="6"/><text fill="currentColor" y="9" dy="0.71em">Feb 21</text></g><g class="tick" opacity="1" transform="translate(455.8846153846154,0)"><line stroke="currentColor" y2="6"/><text fill="currentColor" y="9" dy="0.71em">Feb 28</text></g><g class="tick" opacity="1" transform="translate(512.8076923076923,0)"><line stroke="currentColor" y2="6"/><text fill="currentColor" y="9" dy="0.71em">Mar 06</text></g><g class="tick" opacity="1" transform="translate(569.7307692307693,0)"><line stroke="currentColor" y2="6"/><text fill="currentColor" y="9" dy="0.71em">Mar 13</text></g><g class="tick" opacity="1" transform="translate(626.6538461538462,0)"><line stroke="currentColor" y2="6"/><text fill="currentColor" y="9" dy="0.71em">Mar 20</text></g><g class="tick" opacity="1" transform="translate(683.5769230769231,0)"><line stroke="currentColor" y2="6"/><text fill="currentColor" y="9" dy="0.71em">Mar 27</text></g><g class="tick" opacity="1" transform="translate(740.5,0)"><line stroke="currentColor" y2="6"/><text fill="currentColor" y="9" dy="0.71em">Apr 03</text></g><text x="740" dy="-5" text-anchor="end" style="font-family: Arial, sans-serif; font-size: 12px; fill: rgb(123, 123, 123); font-weight: bold;">日期</text></g><g transform="translate(0,0)" fill="none" font-size="10" font-family="sans-serif" text-anchor="end"><path class="domain" stroke="currentColor" d="M0.5,570.5V0.5"/><g class="tick" opacity="1" transform="translate(0,570.5)"><line stroke="currentColor" x2="-6"/><text fill="currentColor" x="-9" dy="0.32em">440</text></g><g class="tick" opacity="1" transform="translate(0,518.6818181818181)"><line stroke="currentColor" x2="-6"/><text fill="currentColor" x="-9" dy="0.32em">450</text></g><g class="tick" opacity="1" transform="translate(0,466.8636363636363)"><line stroke="currentColor" x2="-6"/><text fill="currentColor" x="-9" dy="0.32em">460</text></g><g class="tick" opacity="1" transform="translate(0,415.04545454545456)"><line stroke="currentColor" x2="-6"/><text fill="currentColor" x="-9" dy="0.32em">470</text></g><g class="tick" opacity="1" transform="translate(0,363.22727272727275)"><line stroke="currentColor" x2="-6"/><text fill="currentColor" x="-9" dy="0.32em">480</text></g><g class="tick" opacity="1" transform="translate(0,311.4090909090909)"><line stroke="currentColor" x2="-6"/><text fill="currentColor" x="-9" dy="0.32em">490</text></g><g class="tick" opacity="1" transform="translate(0,259.5909090909091)"><line stroke="currentColor" x2="-6"/><text fill="currentColor" x="-9" dy="0.32em">500</text></g><g class="tick" opacity="1" transform="translate(0,207.77272727272728)"><line stroke="currentColor" x2="-6"/><text fill="currentColor" x="-9" dy="0.32em">510</text></g><g class="tick" opacity="1" transform="translate(0,155.95454545454544)"><line stroke="currentColor" x2="-6"/><text fill="currentColor" x="-9" dy="0.32em">520</text></g><g class="tick" opacity="1" transform="translate(0,104.13636363636361)"><line stroke="currentColor" x2="-6"/><text fill="currentColor" x="-9" dy="0.32em">530</text></g><g class="tick" opacity="1" transform="translate(0,52.318181818181834)"><line stroke="currentColor" x2="-6"/><text fill="currentColor" x="-9" dy="0.32em">540</text></g><g class="tick" opacity="1" transform="translate(0,0.5)"><line stroke="currentColor" x2="-6"/><text fill="currentColor" x="-9" dy="0.32em">550</text></g><text x="4" text-anchor="start" dominant-baseline="hanging" style="font-family: Arial, sans-serif; font-size: 12px; fill: rgb(123, 123, 123); font-weight: bold;">收盤價</text></g></g><g id="viz"><g><path d="M0,502.6363636363636C4.065934065934067,502.6363636363636,4.065934065934067,520.7727272727273,8.131868131868133,520.7727272727273C12.1978021978022,520.7727272727273,12.1978021978022,474.1363636363636,16.263736263736266,474.1363636363636C20.329670329670332,474.1363636363636,20.329670329670332,474.1363636363636,24.395604395604398,474.1363636363636C36.5934065934066,474.1363636363636,36.5934065934066,357.5454545454545,48.791208791208796,357.5454545454545C52.85714285714286,357.5454545454545,52.85714285714286,331.6363636363636,56.92307692307693,331.6363636363636C60.98901098901099,331.6363636363636,60.98901098901099,339.40909090909093,65.05494505494507,339.40909090909093C69.12087912087912,339.40909090909093,69.12087912087912,329.04545454545456,73.18681318681318,329.04545454545456C77.25274725274724,329.04545454545456,77.25274725274724,259.0909090909091,81.31868131868131,259.0909090909091C93.5164835164835,259.0909090909091,93.5164835164835,233.18181818181816,105.71428571428571,233.18181818181816C109.78021978021978,233.18181818181816,109.78021978021978,243.54545454545453,113.84615384615385,243.54545454545453C166.7032967032967,243.54545454545453,166.7032967032967,36.27272727272725,219.56043956043956,36.27272727272725C223.62637362637363,36.27272727272725,223.62637362637363,145.09090909090907,227.6923076923077,145.09090909090907C231.75824175824175,145.09090909090907,231.75824175824175,103.63636363636361,235.8241758241758,103.63636363636361C239.89010989010987,103.63636363636361,239.89010989010987,51.818181818181834,243.95604395604394,51.818181818181834C248.02197802197801,51.818181818181834,248.02197802197801,41.45454545454547,252.0879120879121,41.45454545454547C264.2857142857143,41.45454545454547,264.2857142857143,124.36363636363635,276.4835164835165,124.36363636363635C280.54945054945057,124.36363636363635,280.54945054945057,139.90909090909093,284.61538461538464,139.90909090909093C288.68131868131866,139.90909090909093,288.68131868131866,51.818181818181834,292.74725274725273,51.818181818181834C296.8131868131868,51.818181818181834,296.8131868131868,51.818181818181834,300.8791208791209,51.818181818181834C304.94505494505495,51.818181818181834,304.94505494505495,25.909090909090885,309.010989010989,25.909090909090885C321.20879120879124,25.909090909090885,321.20879120879124,46.63636363636362,333.4065934065934,46.63636363636362C337.4725274725275,46.63636363636362,337.4725274725275,25.909090909090885,341.53846153846155,25.909090909090885C345.60439560439556,25.909090909090885,345.60439560439556,129.54545454545456,349.67032967032964,129.54545454545456C353.7362637362637,129.54545454545456,353.7362637362637,113.99999999999997,357.8021978021978,113.99999999999997C361.86813186813185,113.99999999999997,361.86813186813185,165.8181818181818,365.9340659340659,165.8181818181818C378.13186813186815,165.8181818181818,378.13186813186815,171.00000000000003,390.32967032967036,171.00000000000003C394.39560439560444,171.00000000000003,394.39560439560444,176.1818181818182,398.46153846153845,176.1818181818182C402.5274725274726,176.1818181818182,402.5274725274726,222.81818181818178,406.59340659340666,222.81818181818178C410.6593406593407,222.81818181818178,410.6593406593407,165.8181818181818,414.72527472527474,165.8181818181818C418.79120879120876,165.8181818181818,418.79120879120876,202.09090909090907,422.85714285714283,202.09090909090907C451.31868131868134,202.09090909090907,451.31868131868134,160.63636363636365,479.7802197802198,160.63636363636365C483.8461538461538,160.63636363636365,483.8461538461538,176.1818181818182,487.9120879120879,176.1818181818182C500.1098901098901,176.1818181818182,500.1098901098901,150.27272727272728,512.3076923076923,150.27272727272728C516.3736263736264,150.27272727272728,516.3736263736264,134.72727272727272,520.4395604395605,134.72727272727272C524.5054945054945,134.72727272727272,524.5054945054945,150.27272727272728,528.5714285714286,150.27272727272728C532.6373626373627,150.27272727272728,532.6373626373627,145.09090909090907,536.7032967032967,145.09090909090907C540.7692307692307,145.09090909090907,540.7692307692307,191.7272727272727,544.8351648351648,191.7272727272727C557.032967032967,191.7272727272727,557.032967032967,176.1818181818182,569.2307692307693,176.1818181818182C573.2967032967033,176.1818181818182,573.2967032967033,207.27272727272728,577.3626373626373,207.27272727272728C581.4285714285713,207.27272727272728,581.4285714285713,202.09090909090907,585.4945054945055,202.09090909090907C589.5604395604396,202.09090909090907,589.5604395604396,233.18181818181816,593.6263736263736,233.18181818181816C597.6923076923076,233.18181818181816,597.6923076923076,165.8181818181818,601.7582417582418,165.8181818181818C613.9560439560439,165.8181818181818,613.9560439560439,196.9090909090909,626.1538461538462,196.9090909090909C630.2197802197802,196.9090909090909,630.2197802197802,171.00000000000003,634.2857142857142,171.00000000000003C638.3516483516484,171.00000000000003,638.3516483516484,88.0909090909091,642.4175824175825,88.0909090909091C646.4835164835165,88.0909090909091,646.4835164835165,62.1818181818182,650.5494505494505,62.1818181818182C654.6153846153845,62.1818181818182,654.6153846153845,56.999999999999986,658.6813186813187,56.999999999999986C670.8791208791208,56.999999999999986,670.8791208791208,98.45454545454545,683.0769230769231,98.45454545454545C687.1428571428571,98.45454545454545,687.1428571428571,129.54545454545456,691.2087912087912,129.54545454545456C695.2747252747253,129.54545454545456,695.2747252747253,103.63636363636361,699.3406593406593,103.63636363636361" stroke="#1f77b4" fill="none"/><text font-family="sans-serif" font-size="10" class="labels" x="309.010989010989" y="25.909090909090885" dx="0" dy="-4" text-anchor="middle"/></g></g></g><text y="4" x="4" style="font-family: Arial, sans-serif; font-size: 12px; fill: black; font-weight: bold; dominant-baseline: hanging;"/></g><g id="grid"><rect x="0" y="0" width="805" height="600" fill="none" stroke="#ccc"/></g></g></svg>